<svg xmlns="http://www.w3.org/2000/svg" viewBox="0 0 200 60" width="200" height="60">
  <!-- Heart -->
  <path d="M28 38 C18 28, 8 22, 8 14 C8 8, 13 4, 18 4 C22 4, 26 7, 28 10 C30 7, 34 4, 38 4 C43 4, 48 8, 48 14 C48 22, 38 28, 28 38 Z"
        fill="#F4C6D7" stroke="#7C3D8F" stroke-width="1.5"/>
  <!-- Small heart inside -->
  <path d="M28 32 C23 26, 16 22, 16 17 C16 14, 18.5 12, 21 12 C23 12, 25 13.5, 28 16 C31 13.5, 33 12, 35 12 C37.5 12, 40 14, 40 17 C40 22, 33 26, 28 32 Z"
        fill="#E8913A" opacity="0.7"/>
  <!-- Text: El Hogar de -->
  <text x="58" y="22" font-family="Georgia, serif" font-size="11" fill="#5A2A6A" font-weight="bold">El Hogar de</text>
  <!-- Text: Corazón -->
  <text x="58" y="40" font-family="Georgia, serif" font-size="18" fill="#7C3D8F" font-weight="bold">Corazón</text>
  <!-- Underline decoration -->
  <rect x="58" y="44" width="130" height="2.5" fill="#E8913A" rx="1.5"/>
</svg>
